{
    "asset" : {
        "generator" : "Khronos glTF Blender I/O v1.5.17",
        "version" : "2.0"
    },
    "scene" : 0,
    "scenes" : [
        {
            "name" : "Scene",
            "nodes" : [
                0,
                1,
                2
            ]
        }
    ],
    "nodes" : [
        {
            "name" : "Light",
            "rotation" : [
                0.16907575726509094,
                0.7558803558349609,
                -0.27217137813568115,
                0.570947527885437
            ],
            "translation" : [
                4.076245307922363,
                5.903861999511719,
                -1.0054539442062378
            ]
        },
        {
            "name" : "Camera",
            "rotation" : [
                0.483536034822464,
                0.33687159419059753,
                -0.20870360732078552,
                0.7804827094078064
            ],
            "translation" : [
                7.358891487121582,
                4.958309173583984,
                6.925790786743164
            ]
        },
        {
            "mesh" : 0,
            "name" : "Sphere.001",
            "rotation" : [
                -0.010510070249438286,
                -0.8857263326644897,
                -0.3143886625766754,
                -0.3413771986961365
            ],
            "scale" : [
                0.333532452583313,
                0.2068641036748886,
                0.395540714263916
            ],
            "translation" : [
                -0.4576053023338318,
                1.3120496273040771,
                0.6171332597732544
            ]
        }
    ],
    "materials" : [
        {
            "doubleSided" : true,
            "name" : "oxigeno rojo",
            "pbrMetallicRoughness" : {
                "baseColorFactor" : [
                    0.0045424168929457664,
                    0.1991552859544754,
                    0.8000000715255737,
                    1
                ],
                "metallicFactor" : 0,
                "roughnessFactor" : 0.5
            }
        },
        {
            "doubleSided" : true,
            "name" : "carbon ",
            "pbrMetallicRoughness" : {
                "baseColorFactor" : [
                    0.034462373703718185,
                    0.036492280662059784,
                    0.03741005063056946,
                    1
                ],
                "metallicFactor" : 0,
                "roughnessFactor" : 0.5
            }
        },
        {
            "doubleSided" : true,
            "name" : "bond",
            "pbrMetallicRoughness" : {
                "baseColorFactor" : [
                    0.11068896949291229,
                    0.10638287663459778,
                    0.10960333794355392,
                    1
                ],
                "metallicFactor" : 0,
                "roughnessFactor" : 0.5
            }
        },
        {
            "doubleSided" : true,
            "name" : "bond.001",
            "pbrMetallicRoughness" : {
                "baseColorFactor" : [
                    0.11068896949291229,
                    0.10638287663459778,
                    0.10960333794355392,
                    1
                ],
                "metallicFactor" : 0,
                "roughnessFactor" : 0.5
            }
        },
        {
            "doubleSided" : true,
            "name" : "bond.002",
            "pbrMetallicRoughness" : {
                "baseColorFactor" : [
                    0.11068896949291229,
                    0.10638287663459778,
                    0.10960333794355392,
                    1
                ],
                "metallicFactor" : 0,
                "roughnessFactor" : 0.5
            }
        },
        {
            "doubleSided" : true,
            "name" : "bond.004",
            "pbrMetallicRoughness" : {
                "baseColorFactor" : [
                    0.11068896949291229,
                    0.10638287663459778,
                    0.10960333794355392,
                    1
                ],
                "metallicFactor" : 0,
                "roughnessFactor" : 0.5
            }
        }
    ],
    "meshes" : [
        {
            "name" : "Sphere.003",
            "primitives" : [
                {
                    "attributes" : {
                        "POSITION" : 0,
                        "NORMAL" : 1,
                        "TEXCOORD_0" : 2
                    },
                    "indices" : 3,
                    "material" : 0
                },
                {
                    "attributes" : {
                        "POSITION" : 4,
                        "NORMAL" : 5,
                        "TEXCOORD_0" : 6
                    },
                    "indices" : 7,
                    "material" : 1
                },
                {
                    "attributes" : {
                        "POSITION" : 8,
                        "NORMAL" : 9,
                        "TEXCOORD_0" : 10
                    },
                    "indices" : 11,
                    "material" : 2
                },
                {
                    "attributes" : {
                        "POSITION" : 12,
                        "NORMAL" : 13,
                        "TEXCOORD_0" : 14
                    },
                    "indices" : 11,
                    "material" : 3
                },
                {
                    "attributes" : {
                        "POSITION" : 15,
                        "NORMAL" : 16,
                        "TEXCOORD_0" : 17
                    },
                    "indices" : 18,
                    "material" : 4
                },
                {
                    "attributes" : {
                        "POSITION" : 19,
                        "NORMAL" : 20,
                        "TEXCOORD_0" : 21
                    },
                    "indices" : 18,
                    "material" : 5
                }
            ]
        }
    ],
    "accessors" : [
        {
            "bufferView" : 0,
            "componentType" : 5126,
            "count" : 3968,
            "max" : [
                3.1591668128967285,
                0.7734358310699463,
                0.4830734133720398
            ],
            "min" : [
                -0.43317821621894836,
                -1.622403860092163,
                -0.4079487919807434
            ],
            "type" : "VEC3"
        },
        {
            "bufferView" : 1,
            "componentType" : 5126,
            "count" : 3968,
            "type" : "VEC3"
        },
        {
            "bufferView" : 2,
            "componentType" : 5126,
            "count" : 3968,
            "type" : "VEC2"
        },
        {
            "bufferView" : 3,
            "componentType" : 5123,
            "count" : 5760,
            "type" : "SCALAR"
        },
        {
            "bufferView" : 4,
            "componentType" : 5126,
            "count" : 1984,
            "max" : [
                2.149430513381958,
                0.05883312225341797,
                2.4497454166412354
            ],
            "min" : [
                0.48609310388565063,
                -2.296349048614502,
                0.9992438554763794
            ],
            "type" : "VEC3"
        },
        {
            "bufferView" : 5,
            "componentType" : 5126,
            "count" : 1984,
            "type" : "VEC3"
        },
        {
            "bufferView" : 6,
            "componentType" : 5126,
            "count" : 1984,
            "type" : "VEC2"
        },
        {
            "bufferView" : 7,
            "componentType" : 5123,
            "count" : 2880,
            "type" : "SCALAR"
        },
        {
            "bufferView" : 8,
            "componentType" : 5126,
            "count" : 192,
            "max" : [
                0.8538784980773926,
                -0.20993226766586304,
                1.3352711200714111
            ],
            "min" : [
                0.12853309512138367,
                -1.1238431930541992,
                0.2599570155143738
            ],
            "type" : "VEC3"
        },
        {
            "bufferView" : 9,
            "componentType" : 5126,
            "count" : 192,
            "type" : "VEC3"
        },
        {
            "bufferView" : 10,
            "componentType" : 5126,
            "count" : 192,
            "type" : "VEC2"
        },
        {
            "bufferView" : 11,
            "componentType" : 5123,
            "count" : 372,
            "type" : "SCALAR"
        },
        {
            "bufferView" : 12,
            "componentType" : 5126,
            "count" : 192,
            "max" : [
                0.9132072925567627,
                0.28149014711380005,
                1.329360008239746
            ],
            "min" : [
                0.18786191940307617,
                -0.6324208378791809,
                0.2540459632873535
            ],
            "type" : "VEC3"
        },
        {
            "bufferView" : 13,
            "componentType" : 5126,
            "count" : 192,
            "type" : "VEC3"
        },
        {
            "bufferView" : 14,
            "componentType" : 5126,
            "count" : 192,
            "type" : "VEC2"
        },
        {
            "bufferView" : 15,
            "componentType" : 5126,
            "count" : 192,
            "max" : [
                2.690214157104492,
                -1.0712006092071533,
                1.3134949207305908
            ],
            "min" : [
                1.807365894317627,
                -1.5414812564849854,
                0.25986236333847046
            ],
            "type" : "VEC3"
        },
        {
            "bufferView" : 16,
            "componentType" : 5126,
            "count" : 192,
            "type" : "VEC3"
        },
        {
            "bufferView" : 17,
            "componentType" : 5126,
            "count" : 192,
            "type" : "VEC2"
        },
        {
            "bufferView" : 18,
            "componentType" : 5123,
            "count" : 372,
            "type" : "SCALAR"
        },
        {
            "bufferView" : 19,
            "componentType" : 5126,
            "count" : 192,
            "max" : [
                2.7384867668151855,
                -0.6713538765907288,
                1.3086857795715332
            ],
            "min" : [
                1.8556385040283203,
                -1.1416347026824951,
                0.25505322217941284
            ],
            "type" : "VEC3"
        },
        {
            "bufferView" : 20,
            "componentType" : 5126,
            "count" : 192,
            "type" : "VEC3"
        },
        {
            "bufferView" : 21,
            "componentType" : 5126,
            "count" : 192,
            "type" : "VEC2"
        }
    ],
    "bufferViews" : [
        {
            "buffer" : 0,
            "byteLength" : 47616,
            "byteOffset" : 0
        },
        {
            "buffer" : 0,
            "byteLength" : 47616,
            "byteOffset" : 47616
        },
        {
            "buffer" : 0,
            "byteLength" : 31744,
            "byteOffset" : 95232
        },
        {
            "buffer" : 0,
            "byteLength" : 11520,
            "byteOffset" : 126976
        },
        {
            "buffer" : 0,
            "byteLength" : 23808,
            "byteOffset" : 138496
        },
        {
            "buffer" : 0,
            "byteLength" : 23808,
            "byteOffset" : 162304
        },
        {
            "buffer" : 0,
            "byteLength" : 15872,
            "byteOffset" : 186112
        },
        {
            "buffer" : 0,
            "byteLength" : 5760,
            "byteOffset" : 201984
        },
        {
            "buffer" : 0,
            "byteLength" : 2304,
            "byteOffset" : 207744
        },
        {
            "buffer" : 0,
            "byteLength" : 2304,
            "byteOffset" : 210048
        },
        {
            "buffer" : 0,
            "byteLength" : 1536,
            "byteOffset" : 212352
        },
        {
            "buffer" : 0,
            "byteLength" : 744,
            "byteOffset" : 213888
        },
        {
            "buffer" : 0,
            "byteLength" : 2304,
            "byteOffset" : 214632
        },
        {
            "buffer" : 0,
            "byteLength" : 2304,
            "byteOffset" : 216936
        },
        {
            "buffer" : 0,
            "byteLength" : 1536,
            "byteOffset" : 219240
        },
        {
            "buffer" : 0,
            "byteLength" : 2304,
            "byteOffset" : 220776
        },
        {
            "buffer" : 0,
            "byteLength" : 2304,
            "byteOffset" : 223080
        },
        {
            "buffer" : 0,
            "byteLength" : 1536,
            "byteOffset" : 225384
        },
        {
            "buffer" : 0,
            "byteLength" : 744,
            "byteOffset" : 226920
        },
        {
            "buffer" : 0,
            "byteLength" : 2304,
            "byteOffset" : 227664
        },
        {
            "buffer" : 0,
            "byteLength" : 2304,
            "byteOffset" : 229968
        },
        {
            "buffer" : 0,
            "byteLength" : 1536,
            "byteOffset" : 232272
        }
    ],
    "buffers" : [
        {
            "byteLength" : 233808,
            "uri" : "data:application/octet-stream;base64,"
        }
    ]
}
