{
    "asset" : {
        "generator" : "Khronos glTF Blender I/O v1.5.17",
        "version" : "2.0"
    },
    "scene" : 0,
    "scenes" : [
        {
            "name" : "Scene",
            "nodes" : [
                0,
                1,
                2,
                3,
                4,
                5,
                6
            ]
        }
    ],
    "nodes" : [
        {
            "name" : "Light",
            "rotation" : [
                0.16907575726509094,
                0.7558803558349609,
                -0.27217137813568115,
                0.570947527885437
            ],
            "translation" : [
                4.076245307922363,
                5.903861999511719,
                -1.0054539442062378
            ]
        },
        {
            "name" : "Camera",
            "rotation" : [
                0.483536034822464,
                0.33687159419059753,
                -0.20870360732078552,
                0.7804827094078064
            ],
            "translation" : [
                7.358891487121582,
                4.958309173583984,
                6.925790786743164
            ]
        },
        {
            "mesh" : 0,
            "name" : "Sphere",
            "rotation" : [
                -1,
                0,
                0,
                7.549790126404332e-08
            ],
            "scale" : [
                0.6432487964630127,
                1.1034481525421143,
                1.3769996166229248
            ],
            "translation" : [
                -0.42427682876586914,
                -1.0322914123535156,
                -0.054107666015625
            ]
        },
        {
            "mesh" : 1,
            "name" : "Cylinder",
            "rotation" : [
                0,
                0,
                -0.42464160919189453,
                0.905361533164978
            ],
            "scale" : [
                0.5955906510353088,
                1.8452500104904175,
                0.32369139790534973
            ],
            "translation" : [
                -2.0670430660247803,
                -2.153653621673584,
                0.17392218112945557
            ]
        },
        {
            "mesh" : 2,
            "name" : "Cylinder.001",
            "rotation" : [
                0.00153724430128932,
                -0.08128945529460907,
                -0.9426932334899902,
                0.32360342144966125
            ],
            "scale" : [
                0.6080547571182251,
                1.8649981021881104,
                0.3238707482814789
            ],
            "translation" : [
                1.0632303953170776,
                -2.355938196182251,
                0.17392218112945557
            ]
        },
        {
            "mesh" : 3,
            "name" : "Sphere.001",
            "rotation" : [
                -1,
                0,
                0,
                7.549790126404332e-08
            ],
            "scale" : [
                0.33991459012031555,
                0.5811066627502441,
                0.6477994918823242
            ],
            "translation" : [
                -3.2789957523345947,
                -3.0713491439819336,
                0.218603253364563
            ]
        },
        {
            "mesh" : 4,
            "name" : "Sphere.002",
            "rotation" : [
                -1,
                0,
                0,
                7.549790126404332e-08
            ],
            "scale" : [
                0.33991459012031555,
                0.5811066627502441,
                0.6477994918823242
            ],
            "translation" : [
                1.859767198562622,
                -3.0713491439819336,
                0.218603253364563
            ]
        }
    ],
    "materials" : [
        {
            "doubleSided" : true,
            "name" : "oxigeno",
            "pbrMetallicRoughness" : {
                "baseColorFactor" : [
                    0,
                    0.3608098030090332,
                    0.8000000715255737,
                    1
                ],
                "metallicFactor" : 0,
                "roughnessFactor" : 0.5
            }
        },
        {
            "doubleSided" : true,
            "name" : "bond",
            "pbrMetallicRoughness" : {
                "baseColorFactor" : [
                    0.16264189779758453,
                    0.16264189779758453,
                    0.16264189779758453,
                    1
                ],
                "metallicFactor" : 0,
                "roughnessFactor" : 0.5
            }
        },
        {
            "doubleSided" : true,
            "name" : "hidrogeno",
            "pbrMetallicRoughness" : {
                "baseColorFactor" : [
                    0.8000000715255737,
                    0.0006905808695591986,
                    0,
                    1
                ],
                "metallicFactor" : 0,
                "roughnessFactor" : 0.5
            }
        },
        {
            "doubleSided" : true,
            "name" : "hidrogeno.001",
            "pbrMetallicRoughness" : {
                "baseColorFactor" : [
                    0.8000000715255737,
                    0.0006905808695591986,
                    0,
                    1
                ],
                "metallicFactor" : 0,
                "roughnessFactor" : 0.5
            }
        }
    ],
    "meshes" : [
        {
            "name" : "Sphere",
            "primitives" : [
                {
                    "attributes" : {
                        "POSITION" : 0,
                        "NORMAL" : 1,
                        "TEXCOORD_0" : 2
                    },
                    "indices" : 3,
                    "material" : 0
                }
            ]
        },
        {
            "name" : "Cylinder",
            "primitives" : [
                {
                    "attributes" : {
                        "POSITION" : 4,
                        "NORMAL" : 5,
                        "TEXCOORD_0" : 6
                    },
                    "indices" : 7,
                    "material" : 1
                }
            ]
        },
        {
            "name" : "Cylinder.001",
            "primitives" : [
                {
                    "attributes" : {
                        "POSITION" : 8,
                        "NORMAL" : 9,
                        "TEXCOORD_0" : 10
                    },
                    "indices" : 7,
                    "material" : 1
                }
            ]
        },
        {
            "name" : "Sphere.002",
            "primitives" : [
                {
                    "attributes" : {
                        "POSITION" : 11,
                        "NORMAL" : 12,
                        "TEXCOORD_0" : 13
                    },
                    "indices" : 3,
                    "material" : 2
                }
            ]
        },
        {
            "name" : "Sphere.003",
            "primitives" : [
                {
                    "attributes" : {
                        "POSITION" : 14,
                        "NORMAL" : 15,
                        "TEXCOORD_0" : 16
                    },
                    "indices" : 3,
                    "material" : 3
                }
            ]
        }
    ],
    "accessors" : [
        {
            "bufferView" : 0,
            "componentType" : 5126,
            "count" : 1984,
            "max" : [
                1.7583236694335938,
                1.0322914123535156,
                0.8741863369941711
            ],
            "min" : [
                -1.758322834968567,
                -1.0322914123535156,
                -0.8741860389709473
            ],
            "type" : "VEC3"
        },
        {
            "bufferView" : 1,
            "componentType" : 5126,
            "count" : 1984,
            "type" : "VEC3"
        },
        {
            "bufferView" : 2,
            "componentType" : 5126,
            "count" : 1984,
            "type" : "VEC2"
        },
        {
            "bufferView" : 3,
            "componentType" : 5123,
            "count" : 2880,
            "type" : "SCALAR"
        },
        {
            "bufferView" : 4,
            "componentType" : 5126,
            "count" : 192,
            "max" : [
                0.29560673236846924,
                0.5895463824272156,
                0.5374770164489746
            ],
            "min" : [
                -0.29560673236846924,
                -0.5895463824272156,
                -0.5374770164489746
            ],
            "type" : "VEC3"
        },
        {
            "bufferView" : 5,
            "componentType" : 5126,
            "count" : 192,
            "type" : "VEC3"
        },
        {
            "bufferView" : 6,
            "componentType" : 5126,
            "count" : 192,
            "type" : "VEC2"
        },
        {
            "bufferView" : 7,
            "componentType" : 5123,
            "count" : 372,
            "type" : "SCALAR"
        },
        {
            "bufferView" : 8,
            "componentType" : 5126,
            "count" : 192,
            "max" : [
                0.29560673236846924,
                0.5895463824272156,
                0.5374770164489746
            ],
            "min" : [
                -0.29560673236846924,
                -0.5895463824272156,
                -0.5374770164489746
            ],
            "type" : "VEC3"
        },
        {
            "bufferView" : 9,
            "componentType" : 5126,
            "count" : 192,
            "type" : "VEC3"
        },
        {
            "bufferView" : 10,
            "componentType" : 5126,
            "count" : 192,
            "type" : "VEC2"
        },
        {
            "bufferView" : 11,
            "componentType" : 5126,
            "count" : 1984,
            "max" : [
                1.7583236694335938,
                1.0322914123535156,
                0.8741863369941711
            ],
            "min" : [
                -1.758322834968567,
                -1.0322914123535156,
                -0.8741860389709473
            ],
            "type" : "VEC3"
        },
        {
            "bufferView" : 12,
            "componentType" : 5126,
            "count" : 1984,
            "type" : "VEC3"
        },
        {
            "bufferView" : 13,
            "componentType" : 5126,
            "count" : 1984,
            "type" : "VEC2"
        },
        {
            "bufferView" : 14,
            "componentType" : 5126,
            "count" : 1984,
            "max" : [
                1.7583236694335938,
                1.0322914123535156,
                0.8741863369941711
            ],
            "min" : [
                -1.758322834968567,
                -1.0322914123535156,
                -0.8741860389709473
            ],
            "type" : "VEC3"
        },
        {
            "bufferView" : 15,
            "componentType" : 5126,
            "count" : 1984,
            "type" : "VEC3"
        },
        {
            "bufferView" : 16,
            "componentType" : 5126,
            "count" : 1984,
            "type" : "VEC2"
        }
    ],
    "bufferViews" : [
        {
            "buffer" : 0,
            "byteLength" : 23808,
            "byteOffset" : 0
        },
        {
            "buffer" : 0,
            "byteLength" : 23808,
            "byteOffset" : 23808
        },
        {
            "buffer" : 0,
            "byteLength" : 15872,
            "byteOffset" : 47616
        },
        {
            "buffer" : 0,
            "byteLength" : 5760,
            "byteOffset" : 63488
        },
        {
            "buffer" : 0,
            "byteLength" : 2304,
            "byteOffset" : 69248
        },
        {
            "buffer" : 0,
            "byteLength" : 2304,
            "byteOffset" : 71552
        },
        {
            "buffer" : 0,
            "byteLength" : 1536,
            "byteOffset" : 73856
        },
        {
            "buffer" : 0,
            "byteLength" : 744,
            "byteOffset" : 75392
        },
        {
            "buffer" : 0,
            "byteLength" : 2304,
            "byteOffset" : 76136
        },
        {
            "buffer" : 0,
            "byteLength" : 2304,
            "byteOffset" : 78440
        },
        {
            "buffer" : 0,
            "byteLength" : 1536,
            "byteOffset" : 80744
        },
        {
            "buffer" : 0,
            "byteLength" : 23808,
            "byteOffset" : 82280
        },
        {
            "buffer" : 0,
            "byteLength" : 23808,
            "byteOffset" : 106088
        },
        {
            "buffer" : 0,
            "byteLength" : 15872,
            "byteOffset" : 129896
        },
        {
            "buffer" : 0,
            "byteLength" : 23808,
            "byteOffset" : 145768
        },
        {
            "buffer" : 0,
            "byteLength" : 23808,
            "byteOffset" : 169576
        },
        {
            "buffer" : 0,
            "byteLength" : 15872,
            "byteOffset" : 193384
        }
    ],
    "buffers" : [
        {
            "byteLength" : 209256,
            "uri" : "data:application/octet-stream;base64,"
        }
    ]
}
