{
    "asset" : {
        "generator" : "Khronos glTF Blender I/O v1.5.17",
        "version" : "2.0"
    },
    "scene" : 0,
    "scenes" : [
        {
            "name" : "Scene",
            "nodes" : [
                0,
                1,
                2,
                3,
                4,
                5,
                6
            ]
        }
    ],
    "nodes" : [
        {
            "name" : "Light",
            "rotation" : [
                0.16907575726509094,
                0.7558803558349609,
                -0.27217137813568115,
                0.570947527885437
            ],
            "translation" : [
                4.076245307922363,
                5.903861999511719,
                -1.0054539442062378
            ]
        },
        {
            "name" : "Camera",
            "rotation" : [
                0.483536034822464,
                0.33687159419059753,
                -0.20870360732078552,
                0.7804827094078064
            ],
            "translation" : [
                7.358891487121582,
                4.958309173583984,
                6.925790786743164
            ]
        },
        {
            "mesh" : 0,
            "name" : "Sphere",
            "scale" : [
                1,
                1.3640062808990479,
                1.3831955194473267
            ],
            "translation" : [
                5.284566879272461,
                0.897505521774292,
                4.399836540222168
            ]
        },
        {
            "mesh" : 1,
            "name" : "Cylinder",
            "rotation" : [
                -0.42769676446914673,
                -0.04798159375786781,
                -0.11945699155330658,
                0.894708514213562
            ],
            "scale" : [
                0.6382954120635986,
                2.92203688621521,
                1.2101715803146362
            ],
            "translation" : [
                5.354301452636719,
                -0.594730019569397,
                6.529710292816162
            ]
        },
        {
            "mesh" : 2,
            "name" : "Cylinder.001",
            "rotation" : [
                0.0630815327167511,
                -0.8933908343315125,
                -0.43956252932548523,
                0.06825228035449982
            ],
            "scale" : [
                0.6382954120635986,
                2.92203688621521,
                1.2101715803146362
            ],
            "translation" : [
                5.505064010620117,
                -0.594730019569397,
                2.417234182357788
            ]
        },
        {
            "mesh" : 3,
            "name" : "Sphere.001",
            "scale" : [
                0.6681848764419556,
                0.856325626373291,
                0.9549728035926819
            ],
            "translation" : [
                5.268822193145752,
                -1.6467185020446777,
                7.758091449737549
            ]
        },
        {
            "mesh" : 4,
            "name" : "Sphere.002",
            "scale" : [
                0.6681848764419556,
                0.856325626373291,
                0.9549728035926819
            ],
            "translation" : [
                5.613038539886475,
                -1.6467185020446777,
                1.1619319915771484
            ]
        }
    ],
    "materials" : [
        {
            "doubleSided" : true,
            "name" : "oxigeno",
            "pbrMetallicRoughness" : {
                "baseColorFactor" : [
                    0.004678142722696066,
                    0.39342638850212097,
                    0.8000000715255737,
                    1
                ],
                "metallicFactor" : 0,
                "roughnessFactor" : 0.5
            }
        },
        {
            "doubleSided" : true,
            "name" : "hidrogeno",
            "pbrMetallicRoughness" : {
                "baseColorFactor" : [
                    0.8000000715255737,
                    0.0025725560262799263,
                    0.010424116626381874,
                    1
                ],
                "metallicFactor" : 0,
                "roughnessFactor" : 0.5
            }
        },
        {
            "doubleSided" : true,
            "name" : "hidrogeno.001",
            "pbrMetallicRoughness" : {
                "baseColorFactor" : [
                    0.8000000715255737,
                    0.0025725560262799263,
                    0.010424116626381874,
                    1
                ],
                "metallicFactor" : 0,
                "roughnessFactor" : 0.5
            }
        }
    ],
    "meshes" : [
        {
            "name" : "Sphere",
            "primitives" : [
                {
                    "attributes" : {
                        "POSITION" : 0,
                        "NORMAL" : 1,
                        "TEXCOORD_0" : 2
                    },
                    "indices" : 3,
                    "material" : 0
                }
            ]
        },
        {
            "name" : "Cylinder",
            "primitives" : [
                {
                    "attributes" : {
                        "POSITION" : 4,
                        "NORMAL" : 5,
                        "TEXCOORD_0" : 6
                    },
                    "indices" : 7
                }
            ]
        },
        {
            "name" : "Cylinder.001",
            "primitives" : [
                {
                    "attributes" : {
                        "POSITION" : 8,
                        "NORMAL" : 9,
                        "TEXCOORD_0" : 10
                    },
                    "indices" : 7
                }
            ]
        },
        {
            "name" : "Sphere.001",
            "primitives" : [
                {
                    "attributes" : {
                        "POSITION" : 11,
                        "NORMAL" : 12,
                        "TEXCOORD_0" : 13
                    },
                    "indices" : 3,
                    "material" : 1
                }
            ]
        },
        {
            "name" : "Sphere.002",
            "primitives" : [
                {
                    "attributes" : {
                        "POSITION" : 14,
                        "NORMAL" : 15,
                        "TEXCOORD_0" : 16
                    },
                    "indices" : 3,
                    "material" : 2
                }
            ]
        }
    ],
    "accessors" : [
        {
            "bufferView" : 0,
            "componentType" : 5126,
            "count" : 1984,
            "max" : [
                1.165004014968872,
                0.897505521774292,
                0.8156625628471375
            ],
            "min" : [
                -1.1650035381317139,
                -0.897505521774292,
                -0.8156622648239136
            ],
            "type" : "VEC3"
        },
        {
            "bufferView" : 1,
            "componentType" : 5126,
            "count" : 1984,
            "type" : "VEC3"
        },
        {
            "bufferView" : 2,
            "componentType" : 5126,
            "count" : 1984,
            "type" : "VEC2"
        },
        {
            "bufferView" : 3,
            "componentType" : 5123,
            "count" : 2880,
            "type" : "SCALAR"
        },
        {
            "bufferView" : 4,
            "componentType" : 5126,
            "count" : 192,
            "max" : [
                0.5491247177124023,
                0.5990145802497864,
                0.1995687484741211
            ],
            "min" : [
                -0.5491247177124023,
                -0.5990145802497864,
                -0.1995687484741211
            ],
            "type" : "VEC3"
        },
        {
            "bufferView" : 5,
            "componentType" : 5126,
            "count" : 192,
            "type" : "VEC3"
        },
        {
            "bufferView" : 6,
            "componentType" : 5126,
            "count" : 192,
            "type" : "VEC2"
        },
        {
            "bufferView" : 7,
            "componentType" : 5123,
            "count" : 372,
            "type" : "SCALAR"
        },
        {
            "bufferView" : 8,
            "componentType" : 5126,
            "count" : 192,
            "max" : [
                0.5491247177124023,
                0.5990145802497864,
                0.1995687484741211
            ],
            "min" : [
                -0.5491247177124023,
                -0.5990145802497864,
                -0.1995687484741211
            ],
            "type" : "VEC3"
        },
        {
            "bufferView" : 9,
            "componentType" : 5126,
            "count" : 192,
            "type" : "VEC3"
        },
        {
            "bufferView" : 10,
            "componentType" : 5126,
            "count" : 192,
            "type" : "VEC2"
        },
        {
            "bufferView" : 11,
            "componentType" : 5126,
            "count" : 1984,
            "max" : [
                1.165004014968872,
                0.897505521774292,
                0.8156625628471375
            ],
            "min" : [
                -1.1650035381317139,
                -0.897505521774292,
                -0.8156622648239136
            ],
            "type" : "VEC3"
        },
        {
            "bufferView" : 12,
            "componentType" : 5126,
            "count" : 1984,
            "type" : "VEC3"
        },
        {
            "bufferView" : 13,
            "componentType" : 5126,
            "count" : 1984,
            "type" : "VEC2"
        },
        {
            "bufferView" : 14,
            "componentType" : 5126,
            "count" : 1984,
            "max" : [
                1.165004014968872,
                0.897505521774292,
                0.8156625628471375
            ],
            "min" : [
                -1.1650035381317139,
                -0.897505521774292,
                -0.8156622648239136
            ],
            "type" : "VEC3"
        },
        {
            "bufferView" : 15,
            "componentType" : 5126,
            "count" : 1984,
            "type" : "VEC3"
        },
        {
            "bufferView" : 16,
            "componentType" : 5126,
            "count" : 1984,
            "type" : "VEC2"
        }
    ],
    "bufferViews" : [
        {
            "buffer" : 0,
            "byteLength" : 23808,
            "byteOffset" : 0
        },
        {
            "buffer" : 0,
            "byteLength" : 23808,
            "byteOffset" : 23808
        },
        {
            "buffer" : 0,
            "byteLength" : 15872,
            "byteOffset" : 47616
        },
        {
            "buffer" : 0,
            "byteLength" : 5760,
            "byteOffset" : 63488
        },
        {
            "buffer" : 0,
            "byteLength" : 2304,
            "byteOffset" : 69248
        },
        {
            "buffer" : 0,
            "byteLength" : 2304,
            "byteOffset" : 71552
        },
        {
            "buffer" : 0,
            "byteLength" : 1536,
            "byteOffset" : 73856
        },
        {
            "buffer" : 0,
            "byteLength" : 744,
            "byteOffset" : 75392
        },
        {
            "buffer" : 0,
            "byteLength" : 2304,
            "byteOffset" : 76136
        },
        {
            "buffer" : 0,
            "byteLength" : 2304,
            "byteOffset" : 78440
        },
        {
            "buffer" : 0,
            "byteLength" : 1536,
            "byteOffset" : 80744
        },
        {
            "buffer" : 0,
            "byteLength" : 23808,
            "byteOffset" : 82280
        },
        {
            "buffer" : 0,
            "byteLength" : 23808,
            "byteOffset" : 106088
        },
        {
            "buffer" : 0,
            "byteLength" : 15872,
            "byteOffset" : 129896
        },
        {
            "buffer" : 0,
            "byteLength" : 23808,
            "byteOffset" : 145768
        },
        {
            "buffer" : 0,
            "byteLength" : 23808,
            "byteOffset" : 169576
        },
        {
            "buffer" : 0,
            "byteLength" : 15872,
            "byteOffset" : 193384
        }
    ],
    "buffers" : [
        {
            "byteLength" : 209256,
            "uri" : "data:application/octet-stream;base64,"
        }
    ]
}
