{
    "asset" : {
        "generator" : "Khronos glTF Blender I/O v1.5.17",
        "version" : "2.0"
    },
    "scene" : 0,
    "scenes" : [
        {
            "name" : "Scene",
            "nodes" : [
                0,
                1,
                2,
                3,
                4,
                5,
                6,
                7,
                8,
                9,
                10,
                11
            ]
        }
    ],
    "nodes" : [
        {
            "name" : "Light",
            "rotation" : [
                0.16907575726509094,
                0.7558803558349609,
                -0.27217137813568115,
                0.570947527885437
            ],
            "translation" : [
                4.076245307922363,
                5.903861999511719,
                -1.0054539442062378
            ]
        },
        {
            "name" : "Camera",
            "rotation" : [
                0.483536034822464,
                0.33687159419059753,
                -0.20870360732078552,
                0.7804827094078064
            ],
            "translation" : [
                7.358891487121582,
                4.958309173583984,
                6.925790786743164
            ]
        },
        {
            "mesh" : 0,
            "name" : "Sphere",
            "scale" : [
                -2.1157500743865967,
                4.6624274253845215,
                4.738761901855469
            ],
            "translation" : [
                0.6024374961853027,
                -2.926184892654419,
                1.4485728740692139
            ]
        },
        {
            "mesh" : 1,
            "name" : "Cylinder",
            "rotation" : [
                0.8639375567436218,
                0,
                0,
                0.5035989880561829
            ],
            "scale" : [
                0.37015989422798157,
                2.01066517829895,
                0.27497023344039917
            ],
            "translation" : [
                0.4959598779678345,
                -4.777820587158203,
                3.9005136489868164
            ]
        },
        {
            "mesh" : 2,
            "name" : "Cylinder.001",
            "rotation" : [
                0.004480511415749788,
                0,
                0,
                0.9999899864196777
            ],
            "scale" : [
                0.37015989422798157,
                2.01066517829895,
                0.27497023344039917
            ],
            "translation" : [
                0.8758324384689331,
                1.1196446418762207,
                0.8816728591918945
            ]
        },
        {
            "mesh" : 3,
            "name" : "Cylinder.002",
            "rotation" : [
                0.01929301954805851,
                0,
                0,
                0.9998138546943665
            ],
            "scale" : [
                0.37015989422798157,
                2.01066517829895,
                0.27497023344039917
            ],
            "translation" : [
                0.5720956921577454,
                1.1450965404510498,
                1.743664264678955
            ]
        },
        {
            "mesh" : 4,
            "name" : "Sphere.001",
            "rotation" : [
                -0.0033202962949872017,
                -0.005093395709991455,
                0.05986364930868149,
                0.9981881380081177
            ],
            "scale" : [
                -1.1792155504226685,
                2.7400686740875244,
                2.702023506164551
            ],
            "translation" : [
                0.6024374961853027,
                4.49277400970459,
                1.3667268753051758
            ]
        },
        {
            "mesh" : 5,
            "name" : "Sphere.002",
            "scale" : [
                -1.1792155504226685,
                2.7400686740875244,
                2.702023506164551
            ],
            "translation" : [
                0.2867737412452698,
                -6.071608543395996,
                6.791741847991943
            ]
        },
        {
            "mesh" : 6,
            "name" : "Sphere.004",
            "scale" : [
                -1.1792155504226685,
                2.7400686740875244,
                2.702023506164551
            ],
            "translation" : [
                0.6331653594970703,
                -5.897372245788574,
                -4.451936721801758
            ]
        },
        {
            "mesh" : 7,
            "name" : "Cylinder.004",
            "rotation" : [
                -0.8772738575935364,
                0.057163745164871216,
                0.03122580051422119,
                0.4755500555038452
            ],
            "scale" : [
                0.37015989422798157,
                2.01066517829895,
                0.27497023344039917
            ],
            "translation" : [
                0.8758324384689331,
                -4.730935096740723,
                -1.599790096282959
            ]
        },
        {
            "mesh" : 8,
            "name" : "Cylinder.005",
            "rotation" : [
                0.42753922939300537,
                0,
                0,
                0.9039968252182007
            ],
            "scale" : [
                0.37015989422798157,
                2.01066517829895,
                0.27497023344039917
            ],
            "translation" : [
                0.4959598779678345,
                -4.380781173706055,
                9.465124130249023
            ]
        },
        {
            "mesh" : 9,
            "name" : "Sphere.003",
            "scale" : [
                -1.1792155504226685,
                2.7400686740875244,
                2.702023506164551
            ],
            "translation" : [
                0.2867737412452698,
                -2.7523064613342285,
                11.217764854431152
            ]
        }
    ],
    "materials" : [
        {
            "doubleSided" : true,
            "name" : "carbon.001",
            "pbrMetallicRoughness" : {
                "baseColorFactor" : [
                    0.3343234658241272,
                    0.07520508766174316,
                    0.00013099169882480055,
                    1
                ],
                "metallicFactor" : 0,
                "roughnessFactor" : 0.5
            }
        },
        {
            "doubleSided" : true,
            "name" : "bond",
            "pbrMetallicRoughness" : {
                "baseColorFactor" : [
                    0.3343236446380615,
                    0.3343236446380615,
                    0.3343236446380615,
                    1
                ],
                "metallicFactor" : 0,
                "roughnessFactor" : 0.5
            }
        },
        {
            "doubleSided" : true,
            "name" : "bond.001",
            "pbrMetallicRoughness" : {
                "baseColorFactor" : [
                    0.3343236446380615,
                    0.3343236446380615,
                    0.3343236446380615,
                    1
                ],
                "metallicFactor" : 0,
                "roughnessFactor" : 0.5
            }
        },
        {
            "doubleSided" : true,
            "name" : "bond.002",
            "pbrMetallicRoughness" : {
                "baseColorFactor" : [
                    0.3343236446380615,
                    0.3343236446380615,
                    0.3343236446380615,
                    1
                ],
                "metallicFactor" : 0,
                "roughnessFactor" : 0.5
            }
        },
        {
            "doubleSided" : true,
            "name" : "oxigeno",
            "pbrMetallicRoughness" : {
                "baseColorFactor" : [
                    0,
                    0.22221557796001434,
                    1,
                    1
                ],
                "metallicFactor" : 0,
                "roughnessFactor" : 0.5
            }
        },
        {
            "doubleSided" : true,
            "name" : "bond.006",
            "pbrMetallicRoughness" : {
                "baseColorFactor" : [
                    0.3343236446380615,
                    0.3343236446380615,
                    0.3343236446380615,
                    1
                ],
                "metallicFactor" : 0,
                "roughnessFactor" : 0.5
            }
        },
        {
            "doubleSided" : true,
            "name" : "bond.007",
            "pbrMetallicRoughness" : {
                "baseColorFactor" : [
                    0.3343236446380615,
                    0.3343236446380615,
                    0.3343236446380615,
                    1
                ],
                "metallicFactor" : 0,
                "roughnessFactor" : 0.5
            }
        },
        {
            "doubleSided" : true,
            "name" : "hidrogeno",
            "pbrMetallicRoughness" : {
                "baseColorFactor" : [
                    1,
                    0,
                    0.0012317312648519874,
                    1
                ],
                "metallicFactor" : 0,
                "roughnessFactor" : 0.5
            }
        }
    ],
    "meshes" : [
        {
            "name" : "Sphere",
            "primitives" : [
                {
                    "attributes" : {
                        "POSITION" : 0,
                        "NORMAL" : 1,
                        "TEXCOORD_0" : 2
                    },
                    "indices" : 3,
                    "material" : 0
                }
            ]
        },
        {
            "name" : "Cylinder",
            "primitives" : [
                {
                    "attributes" : {
                        "POSITION" : 4,
                        "NORMAL" : 5,
                        "TEXCOORD_0" : 6
                    },
                    "indices" : 7,
                    "material" : 1
                }
            ]
        },
        {
            "name" : "Cylinder.001",
            "primitives" : [
                {
                    "attributes" : {
                        "POSITION" : 8,
                        "NORMAL" : 9,
                        "TEXCOORD_0" : 10
                    },
                    "indices" : 7,
                    "material" : 2
                }
            ]
        },
        {
            "name" : "Cylinder.002",
            "primitives" : [
                {
                    "attributes" : {
                        "POSITION" : 11,
                        "NORMAL" : 12,
                        "TEXCOORD_0" : 13
                    },
                    "indices" : 7,
                    "material" : 3
                }
            ]
        },
        {
            "name" : "Sphere.001",
            "primitives" : [
                {
                    "attributes" : {
                        "POSITION" : 14,
                        "NORMAL" : 15,
                        "TEXCOORD_0" : 16
                    },
                    "indices" : 3,
                    "material" : 4
                }
            ]
        },
        {
            "name" : "Sphere.002",
            "primitives" : [
                {
                    "attributes" : {
                        "POSITION" : 17,
                        "NORMAL" : 18,
                        "TEXCOORD_0" : 19
                    },
                    "indices" : 3,
                    "material" : 4
                }
            ]
        },
        {
            "name" : "Sphere.004",
            "primitives" : [
                {
                    "attributes" : {
                        "POSITION" : 20,
                        "NORMAL" : 21,
                        "TEXCOORD_0" : 22
                    },
                    "indices" : 3,
                    "material" : 4
                }
            ]
        },
        {
            "name" : "Cylinder.006",
            "primitives" : [
                {
                    "attributes" : {
                        "POSITION" : 23,
                        "NORMAL" : 24,
                        "TEXCOORD_0" : 25
                    },
                    "indices" : 7,
                    "material" : 5
                }
            ]
        },
        {
            "name" : "Cylinder.007",
            "primitives" : [
                {
                    "attributes" : {
                        "POSITION" : 26,
                        "NORMAL" : 27,
                        "TEXCOORD_0" : 28
                    },
                    "indices" : 7,
                    "material" : 6
                }
            ]
        },
        {
            "name" : "Sphere.006",
            "primitives" : [
                {
                    "attributes" : {
                        "POSITION" : 29,
                        "NORMAL" : 30,
                        "TEXCOORD_0" : 31
                    },
                    "indices" : 3,
                    "material" : 7
                }
            ]
        }
    ],
    "accessors" : [
        {
            "bufferView" : 0,
            "componentType" : 5126,
            "count" : 1984,
            "max" : [
                1.101647138595581,
                0.46801966428756714,
                0.4726394712924957
            ],
            "min" : [
                -1.1016466617584229,
                -0.46801966428756714,
                -0.4726392924785614
            ],
            "type" : "VEC3"
        },
        {
            "bufferView" : 1,
            "componentType" : 5126,
            "count" : 1984,
            "type" : "VEC3"
        },
        {
            "bufferView" : 2,
            "componentType" : 5126,
            "count" : 1984,
            "type" : "VEC2"
        },
        {
            "bufferView" : 3,
            "componentType" : 5123,
            "count" : 2880,
            "type" : "SCALAR"
        },
        {
            "bufferView" : 4,
            "componentType" : 5126,
            "count" : 192,
            "max" : [
                0.7604871988296509,
                1.277684211730957,
                0.9896926879882812
            ],
            "min" : [
                -0.7604871988296509,
                -1.277684211730957,
                -0.9896926879882812
            ],
            "type" : "VEC3"
        },
        {
            "bufferView" : 5,
            "componentType" : 5126,
            "count" : 192,
            "type" : "VEC3"
        },
        {
            "bufferView" : 6,
            "componentType" : 5126,
            "count" : 192,
            "type" : "VEC2"
        },
        {
            "bufferView" : 7,
            "componentType" : 5123,
            "count" : 372,
            "type" : "SCALAR"
        },
        {
            "bufferView" : 8,
            "componentType" : 5126,
            "count" : 192,
            "max" : [
                0.7604871988296509,
                1.277684211730957,
                0.9896926879882812
            ],
            "min" : [
                -0.7604871988296509,
                -1.277684211730957,
                -0.9896926879882812
            ],
            "type" : "VEC3"
        },
        {
            "bufferView" : 9,
            "componentType" : 5126,
            "count" : 192,
            "type" : "VEC3"
        },
        {
            "bufferView" : 10,
            "componentType" : 5126,
            "count" : 192,
            "type" : "VEC2"
        },
        {
            "bufferView" : 11,
            "componentType" : 5126,
            "count" : 192,
            "max" : [
                0.7604871988296509,
                1.277684211730957,
                0.9896926879882812
            ],
            "min" : [
                -0.7604871988296509,
                -1.277684211730957,
                -0.9896926879882812
            ],
            "type" : "VEC3"
        },
        {
            "bufferView" : 12,
            "componentType" : 5126,
            "count" : 192,
            "type" : "VEC3"
        },
        {
            "bufferView" : 13,
            "componentType" : 5126,
            "count" : 192,
            "type" : "VEC2"
        },
        {
            "bufferView" : 14,
            "componentType" : 5126,
            "count" : 1984,
            "max" : [
                1.101647138595581,
                0.46801966428756714,
                0.4726394712924957
            ],
            "min" : [
                -1.1016466617584229,
                -0.46801966428756714,
                -0.4726392924785614
            ],
            "type" : "VEC3"
        },
        {
            "bufferView" : 15,
            "componentType" : 5126,
            "count" : 1984,
            "type" : "VEC3"
        },
        {
            "bufferView" : 16,
            "componentType" : 5126,
            "count" : 1984,
            "type" : "VEC2"
        },
        {
            "bufferView" : 17,
            "componentType" : 5126,
            "count" : 1984,
            "max" : [
                1.101647138595581,
                0.46801966428756714,
                0.4726394712924957
            ],
            "min" : [
                -1.1016466617584229,
                -0.46801966428756714,
                -0.4726392924785614
            ],
            "type" : "VEC3"
        },
        {
            "bufferView" : 18,
            "componentType" : 5126,
            "count" : 1984,
            "type" : "VEC3"
        },
        {
            "bufferView" : 19,
            "componentType" : 5126,
            "count" : 1984,
            "type" : "VEC2"
        },
        {
            "bufferView" : 20,
            "componentType" : 5126,
            "count" : 1984,
            "max" : [
                1.101647138595581,
                0.46801966428756714,
                0.4726394712924957
            ],
            "min" : [
                -1.1016466617584229,
                -0.46801966428756714,
                -0.4726392924785614
            ],
            "type" : "VEC3"
        },
        {
            "bufferView" : 21,
            "componentType" : 5126,
            "count" : 1984,
            "type" : "VEC3"
        },
        {
            "bufferView" : 22,
            "componentType" : 5126,
            "count" : 1984,
            "type" : "VEC2"
        },
        {
            "bufferView" : 23,
            "componentType" : 5126,
            "count" : 192,
            "max" : [
                0.7604871988296509,
                1.277684211730957,
                0.9896926879882812
            ],
            "min" : [
                -0.7604871988296509,
                -1.277684211730957,
                -0.9896926879882812
            ],
            "type" : "VEC3"
        },
        {
            "bufferView" : 24,
            "componentType" : 5126,
            "count" : 192,
            "type" : "VEC3"
        },
        {
            "bufferView" : 25,
            "componentType" : 5126,
            "count" : 192,
            "type" : "VEC2"
        },
        {
            "bufferView" : 26,
            "componentType" : 5126,
            "count" : 192,
            "max" : [
                0.7604871988296509,
                1.277684211730957,
                0.9896926879882812
            ],
            "min" : [
                -0.7604871988296509,
                -1.277684211730957,
                -0.9896926879882812
            ],
            "type" : "VEC3"
        },
        {
            "bufferView" : 27,
            "componentType" : 5126,
            "count" : 192,
            "type" : "VEC3"
        },
        {
            "bufferView" : 28,
            "componentType" : 5126,
            "count" : 192,
            "type" : "VEC2"
        },
        {
            "bufferView" : 29,
            "componentType" : 5126,
            "count" : 1984,
            "max" : [
                1.101647138595581,
                0.46801966428756714,
                0.4726394712924957
            ],
            "min" : [
                -1.1016466617584229,
                -0.46801966428756714,
                -0.4726392924785614
            ],
            "type" : "VEC3"
        },
        {
            "bufferView" : 30,
            "componentType" : 5126,
            "count" : 1984,
            "type" : "VEC3"
        },
        {
            "bufferView" : 31,
            "componentType" : 5126,
            "count" : 1984,
            "type" : "VEC2"
        }
    ],
    "bufferViews" : [
        {
            "buffer" : 0,
            "byteLength" : 23808,
            "byteOffset" : 0
        },
        {
            "buffer" : 0,
            "byteLength" : 23808,
            "byteOffset" : 23808
        },
        {
            "buffer" : 0,
            "byteLength" : 15872,
            "byteOffset" : 47616
        },
        {
            "buffer" : 0,
            "byteLength" : 5760,
            "byteOffset" : 63488
        },
        {
            "buffer" : 0,
            "byteLength" : 2304,
            "byteOffset" : 69248
        },
        {
            "buffer" : 0,
            "byteLength" : 2304,
            "byteOffset" : 71552
        },
        {
            "buffer" : 0,
            "byteLength" : 1536,
            "byteOffset" : 73856
        },
        {
            "buffer" : 0,
            "byteLength" : 744,
            "byteOffset" : 75392
        },
        {
            "buffer" : 0,
            "byteLength" : 2304,
            "byteOffset" : 76136
        },
        {
            "buffer" : 0,
            "byteLength" : 2304,
            "byteOffset" : 78440
        },
        {
            "buffer" : 0,
            "byteLength" : 1536,
            "byteOffset" : 80744
        },
        {
            "buffer" : 0,
            "byteLength" : 2304,
            "byteOffset" : 82280
        },
        {
            "buffer" : 0,
            "byteLength" : 2304,
            "byteOffset" : 84584
        },
        {
            "buffer" : 0,
            "byteLength" : 1536,
            "byteOffset" : 86888
        },
        {
            "buffer" : 0,
            "byteLength" : 23808,
            "byteOffset" : 88424
        },
        {
            "buffer" : 0,
            "byteLength" : 23808,
            "byteOffset" : 112232
        },
        {
            "buffer" : 0,
            "byteLength" : 15872,
            "byteOffset" : 136040
        },
        {
            "buffer" : 0,
            "byteLength" : 23808,
            "byteOffset" : 151912
        },
        {
            "buffer" : 0,
            "byteLength" : 23808,
            "byteOffset" : 175720
        },
        {
            "buffer" : 0,
            "byteLength" : 15872,
            "byteOffset" : 199528
        },
        {
            "buffer" : 0,
            "byteLength" : 23808,
            "byteOffset" : 215400
        },
        {
            "buffer" : 0,
            "byteLength" : 23808,
            "byteOffset" : 239208
        },
        {
            "buffer" : 0,
            "byteLength" : 15872,
            "byteOffset" : 263016
        },
        {
            "buffer" : 0,
            "byteLength" : 2304,
            "byteOffset" : 278888
        },
        {
            "buffer" : 0,
            "byteLength" : 2304,
            "byteOffset" : 281192
        },
        {
            "buffer" : 0,
            "byteLength" : 1536,
            "byteOffset" : 283496
        },
        {
            "buffer" : 0,
            "byteLength" : 2304,
            "byteOffset" : 285032
        },
        {
            "buffer" : 0,
            "byteLength" : 2304,
            "byteOffset" : 287336
        },
        {
            "buffer" : 0,
            "byteLength" : 1536,
            "byteOffset" : 289640
        },
        {
            "buffer" : 0,
            "byteLength" : 23808,
            "byteOffset" : 291176
        },
        {
            "buffer" : 0,
            "byteLength" : 23808,
            "byteOffset" : 314984
        },
        {
            "buffer" : 0,
            "byteLength" : 15872,
            "byteOffset" : 338792
        }
    ],
    "buffers" : [
        {
            "byteLength" : 354664,
            "uri" : "data:application/octet-stream;base64,"
        }
    ]
}
