{
    "asset" : {
        "generator" : "Khronos glTF Blender I/O v1.5.17",
        "version" : "2.0"
    },
    "scene" : 0,
    "scenes" : [
        {
            "name" : "Scene",
            "nodes" : [
                0,
                1,
                2,
                3,
                4,
                5,
                6,
                7,
                8
            ]
        }
    ],
    "nodes" : [
        {
            "name" : "Light",
            "rotation" : [
                0.16907575726509094,
                0.7558803558349609,
                -0.27217137813568115,
                0.570947527885437
            ],
            "translation" : [
                4.076245307922363,
                5.903861999511719,
                -1.0054539442062378
            ]
        },
        {
            "name" : "Camera",
            "rotation" : [
                0.483536034822464,
                0.33687159419059753,
                -0.20870360732078552,
                0.7804827094078064
            ],
            "translation" : [
                7.358891487121582,
                4.958309173583984,
                6.925790786743164
            ]
        },
        {
            "mesh" : 0,
            "name" : "Cylinder",
            "rotation" : [
                0.102242611348629,
                -0.4520227313041687,
                -0.4675249457359314,
                -0.752756655216217
            ],
            "scale" : [
                0.5019165873527527,
                1.5475765466690063,
                0.7402045726776123
            ],
            "translation" : [
                2.2219555377960205,
                -0.7211880087852478,
                -0.2974628210067749
            ]
        },
        {
            "mesh" : 1,
            "name" : "Sphere",
            "scale" : [
                1.5713599920272827,
                1.553313136100769,
                1.6355974674224854
            ],
            "translation" : [
                -0.08727550506591797,
                1.1310973167419434,
                0.5979602336883545
            ]
        },
        {
            "mesh" : 2,
            "name" : "Cylinder.001",
            "rotation" : [
                -0.2327028214931488,
                -0.6359545588493347,
                0.3411356806755066,
                -0.6519492268562317
            ],
            "scale" : [
                0.5019165873527527,
                1.5475765466690063,
                0.7402045726776123
            ],
            "translation" : [
                -2.3974814414978027,
                -1.125910758972168,
                0.8622820377349854
            ]
        },
        {
            "mesh" : 3,
            "name" : "Cylinder.002",
            "rotation" : [
                0.8721509575843811,
                0.12053682655096054,
                -0.07635053992271423,
                0.4679684042930603
            ],
            "scale" : [
                0.5019165873527527,
                1.5475765466690063,
                0.7402045726776123
            ],
            "translation" : [
                0.6865973472595215,
                -0.8987279534339905,
                2.7560102939605713
            ]
        },
        {
            "mesh" : 4,
            "name" : "Sphere.001",
            "rotation" : [
                -0.007216752972453833,
                0.0008700263570062816,
                0.01901671662926674,
                0.999792754650116
            ],
            "scale" : [
                0.7693751454353333,
                0.7193326354026794,
                0.7391340732574463
            ],
            "translation" : [
                -3.1455423831939697,
                -1.8592534065246582,
                0.8361647129058838
            ]
        },
        {
            "mesh" : 5,
            "name" : "Sphere.002",
            "rotation" : [
                -0.007216752972453833,
                0.0008700263570062816,
                0.01901671662926674,
                0.999792754650116
            ],
            "scale" : [
                0.7693751454353333,
                0.7193326354026794,
                0.7391340732574463
            ],
            "translation" : [
                1.099879503250122,
                -1.8592534065246582,
                4.272678375244141
            ]
        },
        {
            "mesh" : 6,
            "name" : "Sphere.003",
            "rotation" : [
                -0.007216752972453833,
                0.0008700263570062816,
                0.01901671662926674,
                0.999792754650116
            ],
            "scale" : [
                0.7693751454353333,
                0.7193326354026794,
                0.7391340732574463
            ],
            "translation" : [
                4.027030944824219,
                -1.8592534065246582,
                -0.8500949144363403
            ]
        }
    ],
    "materials" : [
        {
            "doubleSided" : true,
            "name" : "bond",
            "pbrMetallicRoughness" : {
                "baseColorFactor" : [
                    0.17886188626289368,
                    0.17886188626289368,
                    0.17886188626289368,
                    1
                ],
                "metallicFactor" : 0,
                "roughnessFactor" : 0.5
            }
        },
        {
            "doubleSided" : true,
            "name" : "nitrogeno",
            "pbrMetallicRoughness" : {
                "baseColorFactor" : [
                    0.2597986161708832,
                    0.08498437702655792,
                    0.0020979922264814377,
                    1
                ],
                "metallicFactor" : 0,
                "roughnessFactor" : 0.5
            }
        },
        {
            "doubleSided" : true,
            "name" : "hidrogeno",
            "pbrMetallicRoughness" : {
                "baseColorFactor" : [
                    1,
                    0,
                    0.0069555481895804405,
                    1
                ],
                "metallicFactor" : 0,
                "roughnessFactor" : 0.5
            }
        },
        {
            "doubleSided" : true,
            "name" : "hidrogeno.001",
            "pbrMetallicRoughness" : {
                "baseColorFactor" : [
                    1,
                    0,
                    0.0069555481895804405,
                    1
                ],
                "metallicFactor" : 0,
                "roughnessFactor" : 0.5
            }
        },
        {
            "doubleSided" : true,
            "name" : "hidrogeno.002",
            "pbrMetallicRoughness" : {
                "baseColorFactor" : [
                    1,
                    0,
                    0.0069555481895804405,
                    1
                ],
                "metallicFactor" : 0,
                "roughnessFactor" : 0.5
            }
        }
    ],
    "meshes" : [
        {
            "name" : "Cylinder",
            "primitives" : [
                {
                    "attributes" : {
                        "POSITION" : 0,
                        "NORMAL" : 1,
                        "TEXCOORD_0" : 2
                    },
                    "indices" : 3,
                    "material" : 0
                }
            ]
        },
        {
            "name" : "Sphere",
            "primitives" : [
                {
                    "attributes" : {
                        "POSITION" : 4,
                        "NORMAL" : 5,
                        "TEXCOORD_0" : 6
                    },
                    "indices" : 7,
                    "material" : 1
                }
            ]
        },
        {
            "name" : "Cylinder.001",
            "primitives" : [
                {
                    "attributes" : {
                        "POSITION" : 8,
                        "NORMAL" : 9,
                        "TEXCOORD_0" : 10
                    },
                    "indices" : 3,
                    "material" : 0
                }
            ]
        },
        {
            "name" : "Cylinder.002",
            "primitives" : [
                {
                    "attributes" : {
                        "POSITION" : 11,
                        "NORMAL" : 12,
                        "TEXCOORD_0" : 13
                    },
                    "indices" : 3,
                    "material" : 0
                }
            ]
        },
        {
            "name" : "Sphere.001",
            "primitives" : [
                {
                    "attributes" : {
                        "POSITION" : 14,
                        "NORMAL" : 15,
                        "TEXCOORD_0" : 16
                    },
                    "indices" : 7,
                    "material" : 2
                }
            ]
        },
        {
            "name" : "Sphere.002",
            "primitives" : [
                {
                    "attributes" : {
                        "POSITION" : 17,
                        "NORMAL" : 18,
                        "TEXCOORD_0" : 19
                    },
                    "indices" : 7,
                    "material" : 3
                }
            ]
        },
        {
            "name" : "Sphere.003",
            "primitives" : [
                {
                    "attributes" : {
                        "POSITION" : 20,
                        "NORMAL" : 21,
                        "TEXCOORD_0" : 22
                    },
                    "indices" : 7,
                    "material" : 4
                }
            ]
        }
    ],
    "accessors" : [
        {
            "bufferView" : 0,
            "componentType" : 5126,
            "count" : 192,
            "max" : [
                0.49880123138427734,
                1.0152103900909424,
                0.3379936218261719
            ],
            "min" : [
                -0.49880123138427734,
                -1.0152103900909424,
                -0.3379936218261719
            ],
            "type" : "VEC3"
        },
        {
            "bufferView" : 1,
            "componentType" : 5126,
            "count" : 192,
            "type" : "VEC3"
        },
        {
            "bufferView" : 2,
            "componentType" : 5126,
            "count" : 192,
            "type" : "VEC2"
        },
        {
            "bufferView" : 3,
            "componentType" : 5123,
            "count" : 372,
            "type" : "SCALAR"
        },
        {
            "bufferView" : 4,
            "componentType" : 5126,
            "count" : 1984,
            "max" : [
                1.1412084102630615,
                1.1310973167419434,
                1.0472513437271118
            ],
            "min" : [
                -1.1412079334259033,
                -1.1310973167419434,
                -1.0472509860992432
            ],
            "type" : "VEC3"
        },
        {
            "bufferView" : 5,
            "componentType" : 5126,
            "count" : 1984,
            "type" : "VEC3"
        },
        {
            "bufferView" : 6,
            "componentType" : 5126,
            "count" : 1984,
            "type" : "VEC2"
        },
        {
            "bufferView" : 7,
            "componentType" : 5123,
            "count" : 2880,
            "type" : "SCALAR"
        },
        {
            "bufferView" : 8,
            "componentType" : 5126,
            "count" : 192,
            "max" : [
                0.49880123138427734,
                1.0152103900909424,
                0.3379936218261719
            ],
            "min" : [
                -0.49880123138427734,
                -1.0152103900909424,
                -0.3379936218261719
            ],
            "type" : "VEC3"
        },
        {
            "bufferView" : 9,
            "componentType" : 5126,
            "count" : 192,
            "type" : "VEC3"
        },
        {
            "bufferView" : 10,
            "componentType" : 5126,
            "count" : 192,
            "type" : "VEC2"
        },
        {
            "bufferView" : 11,
            "componentType" : 5126,
            "count" : 192,
            "max" : [
                0.49880123138427734,
                1.0152103900909424,
                0.3379936218261719
            ],
            "min" : [
                -0.49880123138427734,
                -1.0152103900909424,
                -0.3379936218261719
            ],
            "type" : "VEC3"
        },
        {
            "bufferView" : 12,
            "componentType" : 5126,
            "count" : 192,
            "type" : "VEC3"
        },
        {
            "bufferView" : 13,
            "componentType" : 5126,
            "count" : 192,
            "type" : "VEC2"
        },
        {
            "bufferView" : 14,
            "componentType" : 5126,
            "count" : 1984,
            "max" : [
                1.1412084102630615,
                1.1310973167419434,
                1.0472513437271118
            ],
            "min" : [
                -1.1412079334259033,
                -1.1310973167419434,
                -1.0472509860992432
            ],
            "type" : "VEC3"
        },
        {
            "bufferView" : 15,
            "componentType" : 5126,
            "count" : 1984,
            "type" : "VEC3"
        },
        {
            "bufferView" : 16,
            "componentType" : 5126,
            "count" : 1984,
            "type" : "VEC2"
        },
        {
            "bufferView" : 17,
            "componentType" : 5126,
            "count" : 1984,
            "max" : [
                1.1412084102630615,
                1.1310973167419434,
                1.0472513437271118
            ],
            "min" : [
                -1.1412079334259033,
                -1.1310973167419434,
                -1.0472509860992432
            ],
            "type" : "VEC3"
        },
        {
            "bufferView" : 18,
            "componentType" : 5126,
            "count" : 1984,
            "type" : "VEC3"
        },
        {
            "bufferView" : 19,
            "componentType" : 5126,
            "count" : 1984,
            "type" : "VEC2"
        },
        {
            "bufferView" : 20,
            "componentType" : 5126,
            "count" : 1984,
            "max" : [
                1.1412084102630615,
                1.1310973167419434,
                1.0472513437271118
            ],
            "min" : [
                -1.1412079334259033,
                -1.1310973167419434,
                -1.0472509860992432
            ],
            "type" : "VEC3"
        },
        {
            "bufferView" : 21,
            "componentType" : 5126,
            "count" : 1984,
            "type" : "VEC3"
        },
        {
            "bufferView" : 22,
            "componentType" : 5126,
            "count" : 1984,
            "type" : "VEC2"
        }
    ],
    "bufferViews" : [
        {
            "buffer" : 0,
            "byteLength" : 2304,
            "byteOffset" : 0
        },
        {
            "buffer" : 0,
            "byteLength" : 2304,
            "byteOffset" : 2304
        },
        {
            "buffer" : 0,
            "byteLength" : 1536,
            "byteOffset" : 4608
        },
        {
            "buffer" : 0,
            "byteLength" : 744,
            "byteOffset" : 6144
        },
        {
            "buffer" : 0,
            "byteLength" : 23808,
            "byteOffset" : 6888
        },
        {
            "buffer" : 0,
            "byteLength" : 23808,
            "byteOffset" : 30696
        },
        {
            "buffer" : 0,
            "byteLength" : 15872,
            "byteOffset" : 54504
        },
        {
            "buffer" : 0,
            "byteLength" : 5760,
            "byteOffset" : 70376
        },
        {
            "buffer" : 0,
            "byteLength" : 2304,
            "byteOffset" : 76136
        },
        {
            "buffer" : 0,
            "byteLength" : 2304,
            "byteOffset" : 78440
        },
        {
            "buffer" : 0,
            "byteLength" : 1536,
            "byteOffset" : 80744
        },
        {
            "buffer" : 0,
            "byteLength" : 2304,
            "byteOffset" : 82280
        },
        {
            "buffer" : 0,
            "byteLength" : 2304,
            "byteOffset" : 84584
        },
        {
            "buffer" : 0,
            "byteLength" : 1536,
            "byteOffset" : 86888
        },
        {
            "buffer" : 0,
            "byteLength" : 23808,
            "byteOffset" : 88424
        },
        {
            "buffer" : 0,
            "byteLength" : 23808,
            "byteOffset" : 112232
        },
        {
            "buffer" : 0,
            "byteLength" : 15872,
            "byteOffset" : 136040
        },
        {
            "buffer" : 0,
            "byteLength" : 23808,
            "byteOffset" : 151912
        },
        {
            "buffer" : 0,
            "byteLength" : 23808,
            "byteOffset" : 175720
        },
        {
            "buffer" : 0,
            "byteLength" : 15872,
            "byteOffset" : 199528
        },
        {
            "buffer" : 0,
            "byteLength" : 23808,
            "byteOffset" : 215400
        },
        {
            "buffer" : 0,
            "byteLength" : 23808,
            "byteOffset" : 239208
        },
        {
            "buffer" : 0,
            "byteLength" : 15872,
            "byteOffset" : 263016
        }
    ],
    "buffers" : [
        {
            "byteLength" : 278888,
            "uri" : "data:application/octet-stream;base64,"
        }
    ]
}
